<svg width="64" height="38" viewBox="0 0 64 38" fill="none" xmlns="http://www.w3.org/2000/svg">
<path d="M59.6364 0C61.5364 0 63.0909 1.55455 63.0909 3.45455V34.5455C63.0909 36.4455 61.5364 38 59.6364 38H4.36363C2.46363 38 0.909088 36.4455 0.909088 34.5455V3.45455C0.909088 1.55455 2.46363 0 4.36363 0H59.6364Z" fill="url(#paint0_linear_4275_23704)"/>
<path d="M50.6701 27.436L45.8597 21.1505L50.2867 15.561H46.5126L42.2704 20.9812V9.51556H39.0784V27.436H42.2704V21.3353L46.5126 27.436H50.6701ZM30.4092 9.51556H27.2172V27.4205H30.4092V9.51556ZM36.339 15.5748H33.147V27.436H36.339V15.5748Z" fill="white"/>
<path d="M22.1805 14.3398C22.555 14.3398 22.9258 14.266 23.2718 14.1227C23.6178 13.9794 23.9321 13.7694 24.1969 13.5046C24.4617 13.2397 24.6718 12.9254 24.8151 12.5794C24.9584 12.2334 25.0322 11.8626 25.0322 11.4881C25.0322 11.1136 24.9584 10.7428 24.8151 10.3968C24.6718 10.0508 24.4617 9.73641 24.1969 9.4716C23.9321 9.2068 23.6178 8.99674 23.2718 8.85343C22.9258 8.71012 22.555 8.63635 22.1805 8.63635C21.4241 8.63635 20.6988 8.9368 20.164 9.4716C19.6292 10.0064 19.3287 10.7318 19.3287 11.4881C19.3287 12.2444 19.6292 12.9698 20.164 13.5046C20.6988 14.0394 21.4241 14.3398 22.1805 14.3398V14.3398Z" fill="url(#paint1_radial_4275_23704)"/>
<path d="M19.0575 15.4332C18.0661 15.4332 17.0919 15.6819 16.2214 16.1569V9.58466H13V21.5028C12.9997 22.7047 13.3559 23.8797 14.0237 24.8789C14.6916 25.8782 15.6408 26.6569 16.7514 27.1163C17.862 27.5758 19.084 27.6954 20.2626 27.46C21.4412 27.2246 22.5234 26.6448 23.3723 25.794C24.2212 24.9431 24.7985 23.8596 25.0313 22.6804C25.264 21.5013 25.1416 20.2796 24.6796 19.1701C24.2176 18.0606 23.4368 17.1131 22.436 16.4475C21.4352 15.782 20.2594 15.4284 19.0575 15.4315V15.4332ZM19.0575 24.3718C18.6849 24.3718 18.3158 24.2984 17.9715 24.1558C17.6272 24.0132 17.3144 23.8042 17.0508 23.5406C16.7873 23.2771 16.5783 22.9643 16.4357 22.6199C16.293 22.2756 16.2196 21.9066 16.2196 21.5339C16.2196 21.1612 16.293 20.7922 16.4357 20.4479C16.5783 20.1036 16.7873 19.7907 17.0508 19.5272C17.3144 19.2637 17.6272 19.0547 17.9715 18.912C18.3158 18.7694 18.6849 18.696 19.0575 18.696C19.8102 18.696 20.532 18.995 21.0642 19.5272C21.5965 20.0594 21.8955 20.7813 21.8955 21.5339C21.8955 22.2866 21.5965 23.0084 21.0642 23.5406C20.532 24.0728 19.8102 24.3718 19.0575 24.3718V24.3718Z" fill="white"/>
<defs>
<linearGradient id="paint0_linear_4275_23704" x1="32" y1="6.86936" x2="32" y2="94.3177" gradientUnits="userSpaceOnUse">
<stop/>
<stop offset="0.732" stop-color="white"/>
<stop offset="1" stop-color="white"/>
</linearGradient>
<radialGradient id="paint1_radial_4275_23704" cx="0" cy="0" r="1" gradientUnits="userSpaceOnUse" gradientTransform="translate(19.8676 8.47917) scale(9.34968)">
<stop stop-color="#FF0000"/>
<stop offset="0.49" stop-color="#E83E49"/>
<stop offset="1" stop-color="#FF00FF"/>
</radialGradient>
</defs>
</svg>
