<svg viewBox="0 0 36 36" fill="none" xmlns="http://www.w3.org/2000/svg">
<g filter="url(#filter0_d_1100_1401)">
<path d="M27 16C27 20.9706 22.9706 25 18 25C13.0294 25 9 20.9706 9 16C9 11.0294 13.0294 7 18 7C22.9706 7 27 11.0294 27 16Z" fill="#1878B9"/>
</g>
<g filter="url(#filter1_d_1100_1401)">
<path fill-rule="evenodd" clip-rule="evenodd" d="M18 26C23.5228 26 28 21.5228 28 16C28 10.4772 23.5228 6 18 6C12.4772 6 8 10.4772 8 16C8 21.5228 12.4772 26 18 26Z" fill="white"/>
</g>
<path d="M26 16C26 20.4183 22.4183 24 18 24C13.5817 24 10 20.4183 10 16C10 11.5817 13.5817 8 18 8C22.4183 8 26 11.5817 26 16Z" fill="#1879B9"/>
<path fill-rule="evenodd" clip-rule="evenodd" d="M18 24C22.4183 24 26 20.4183 26 16C26 11.5817 22.4183 8 18 8C13.5817 8 10 11.5817 10 16C10 20.4183 13.5817 24 18 24ZM18 23C21.866 23 25 19.866 25 16C25 12.134 21.866 9 18 9C14.134 9 11 12.134 11 16C11 19.866 14.134 23 18 23Z" fill="black" fill-opacity="0.3"/>
<defs>
<filter id="filter0_d_1100_1401" x="5" y="7" width="26" height="26" filterUnits="userSpaceOnUse" color-interpolation-filters="sRGB">
<feFlood flood-opacity="0" result="BackgroundImageFix"/>
<feColorMatrix in="SourceAlpha" type="matrix" values="0 0 0 0 0 0 0 0 0 0 0 0 0 0 0 0 0 0 127 0" result="hardAlpha"/>
<feOffset dy="4"/>
<feGaussianBlur stdDeviation="2"/>
<feComposite in2="hardAlpha" operator="out"/>
<feColorMatrix type="matrix" values="0 0 0 0 0 0 0 0 0 0 0 0 0 0 0 0 0 0 0.24 0"/>
<feBlend mode="normal" in2="BackgroundImageFix" result="effect1_dropShadow_1100_1401"/>
<feBlend mode="normal" in="SourceGraphic" in2="effect1_dropShadow_1100_1401" result="shape"/>
</filter>
<filter id="filter1_d_1100_1401" x="0" y="0" width="36" height="36" filterUnits="userSpaceOnUse" color-interpolation-filters="sRGB">
<feFlood flood-opacity="0" result="BackgroundImageFix"/>
<feColorMatrix in="SourceAlpha" type="matrix" values="0 0 0 0 0 0 0 0 0 0 0 0 0 0 0 0 0 0 127 0" result="hardAlpha"/>
<feOffset dy="2"/>
<feGaussianBlur stdDeviation="4"/>
<feColorMatrix type="matrix" values="0 0 0 0 0 0 0 0 0 0 0 0 0 0 0 0 0 0 0.16 0"/>
<feBlend mode="normal" in2="BackgroundImageFix" result="effect1_dropShadow_1100_1401"/>
<feBlend mode="normal" in="SourceGraphic" in2="effect1_dropShadow_1100_1401" result="shape"/>
</filter>
</defs>
</svg>
