<svg viewBox="0 0 80 24" fill="none" xmlns="http://www.w3.org/2000/svg">
<path d="M11.9246 10.9257C11.8437 10.9729 11.7175 10.9695 11.6383 10.9207L11.1736 10.6446C11.1365 10.621 11.1012 10.5839 11.0742 10.5385C11.0726 10.5351 11.0709 10.5334 11.0692 10.5301C11.0389 10.4812 11.022 10.4307 11.0204 10.3836L11.0086 9.84139C11.0052 9.75046 11.0658 9.63933 11.1466 9.59219L16.7301 6.33911L8.89711 2.07072C8.81124 2.02357 8.69674 2 8.58393 2C8.46943 2 8.35662 2.02357 8.26906 2.07072L0.432732 6.3408L9.20861 11.4494C9.28944 11.4932 9.35174 11.5993 9.35174 11.6952V19.1494C9.35174 19.2436 9.28438 19.3497 9.20356 19.3935L8.7321 19.6562C8.69338 19.6764 8.64286 19.6882 8.59066 19.6882C8.5873 19.6882 8.58393 19.6882 8.58225 19.6882C8.525 19.6898 8.4728 19.6781 8.43239 19.6562L7.95925 19.3935C7.87842 19.3514 7.81276 19.242 7.81276 19.1494V12.5035C7.80771 12.4546 7.77235 12.3957 7.73362 12.3738L0 7.87304V16.6893C0 16.8863 0.139754 17.1305 0.309816 17.2298L8.27411 21.9259C8.35999 21.9764 8.47112 22 8.58393 22C8.69674 22 8.80787 21.9764 8.89375 21.9259L16.858 17.2282C17.0281 17.1271 17.1662 16.8847 17.1662 16.6877V7.87304L11.9246 10.9257Z" fill="url(#paint0_linear_1078_480)"/>
<path d="M28.3821 10.0389C27.7692 9.66848 27.1563 9.50684 26.3329 9.50684C24.1406 9.50684 22.5427 11.0071 22.5427 13.2802C22.5427 15.5382 24.0278 17.0216 26.3498 17.0216C27.0906 17.0216 27.8012 16.8768 28.4461 16.4895V14.6676C27.8972 15.0869 27.3011 15.3125 26.6242 15.3125C25.3176 15.3125 24.4942 14.474 24.4942 13.2482C24.4942 11.9584 25.3496 11.2176 26.5434 11.2176C27.2051 11.2176 27.786 11.3944 28.3821 11.8776V10.0389Z" fill="#3C3C3B"/>
<path d="M40.2345 15.2095H40.226C39.5189 15.1505 39.1535 14.7397 39.1535 14.0039V6.3999H37.2222V14.1335C37.2222 16.2416 38.4025 16.9337 40.2345 16.9421V15.2095V15.2095Z" fill="#3C3C3B"/>
<path d="M32.7127 9.50684C30.5676 9.50684 28.9546 11.0223 28.9546 13.2651C28.9546 15.5062 30.5676 17.0233 32.7127 17.0233C34.8578 17.0233 36.486 15.5062 36.486 13.2651C36.486 11.0223 34.8578 9.50684 32.7127 9.50684ZM32.7127 15.3463C31.6638 15.3463 30.9061 14.5549 30.9061 13.2651C30.9061 11.9753 31.6638 11.1856 32.7127 11.1856C33.7617 11.1856 34.5194 11.9753 34.5194 13.2651C34.5194 14.5549 33.76 15.3463 32.7127 15.3463Z" fill="#3C3C3B"/>
<path d="M44.2686 16.3608C44.8495 16.7312 45.7352 16.9417 46.6057 16.9417C48.2827 16.9417 49.4614 16.2328 49.4614 14.6669C49.4614 13.3771 48.8316 12.6666 46.9778 12.3281C46.2992 12.1665 46.0433 11.9745 46.0433 11.6024C46.0433 11.264 46.3177 10.9895 46.9626 10.9895C47.7035 10.9895 48.3332 11.232 49.0101 11.6833V9.95737C48.3821 9.60209 47.7523 9.42529 46.897 9.42529C45.3496 9.42529 44.1558 10.151 44.1558 11.7321C44.1558 13.0387 44.8326 13.6836 46.4609 13.9749C47.2522 14.1365 47.5587 14.3133 47.5587 14.7494C47.5587 15.2007 47.1563 15.3775 46.5585 15.3775C45.848 15.3775 44.9455 15.071 44.2686 14.5709V16.3608Z" fill="#3C3C3B"/>
<path d="M41.1301 16.8608H43.0715V16.2446V9.64917H41.1301V16.8608Z" fill="#3C3C3B"/>
<path d="M42.1017 6.77319C41.5663 6.77319 41.1318 7.20761 41.1318 7.74306C41.1318 8.2785 41.5663 8.71292 42.1017 8.71292C42.6371 8.71292 43.0716 8.2785 43.0716 7.74306C43.0716 7.20593 42.6371 6.77319 42.1017 6.77319Z" fill="#3C3C3B"/>
<path d="M74.4874 9.50684C72.3424 9.50684 70.7295 11.0223 70.7295 13.2651C70.7295 15.5062 72.3424 17.0233 74.4874 17.0233C76.6324 17.0233 78.2606 15.5062 78.2606 13.2651C78.2606 11.0223 76.6308 9.50684 74.4874 9.50684ZM74.4874 15.3463C73.4385 15.3463 72.6809 14.5549 72.6809 13.2651C72.6809 11.9753 73.4385 11.1856 74.4874 11.1856C75.5364 11.1856 76.294 11.9753 76.294 13.2651C76.2924 14.5549 75.5347 15.3463 74.4874 15.3463Z" fill="#3C3C3B"/>
<path d="M50.1111 16.3608C50.692 16.7312 51.5777 16.9417 52.4483 16.9417C54.1271 16.9417 55.3041 16.2328 55.3041 14.6669C55.3041 13.3771 54.6744 12.6666 52.8204 12.3281C52.1418 12.1665 51.8842 11.9745 51.8842 11.6024C51.8842 11.264 52.1587 10.9895 52.8036 10.9895C53.5445 10.9895 54.1743 11.232 54.8512 11.6833V9.95737C54.2231 9.60209 53.5933 9.42529 52.7379 9.42529C51.1904 9.42529 49.9966 10.151 49.9966 11.7321C49.9966 13.0387 50.6735 13.6836 52.3018 13.9749C53.0932 14.1365 53.3997 14.3133 53.3997 14.7494C53.3997 15.2007 52.9972 15.3775 52.3995 15.3775C51.6889 15.3775 50.7863 15.071 50.1094 14.5709L50.1111 16.3608Z" fill="#3C3C3B"/>
<path d="M56.136 16.8608H58.0757V16.2446V9.64917H56.136V16.8608Z" fill="#3C3C3B"/>
<path d="M57.1059 6.77319C56.5704 6.77319 56.136 7.20761 56.136 7.74306C56.136 8.2785 56.5704 8.71292 57.1059 8.71292C57.6413 8.71292 58.0757 8.2785 58.0757 7.74306C58.0757 7.20593 57.6413 6.77319 57.1059 6.77319Z" fill="#3C3C3B"/>
<path d="M67.9847 12.3641C67.9847 11.6064 67.6463 11.2191 66.8886 11.2191C66.3733 11.2191 65.8564 11.3319 65.5348 11.4935C65.5988 11.6552 65.6796 11.896 65.6796 12.2344V16.8615H63.7298V12.3641C63.7298 11.6064 63.3745 11.2191 62.6336 11.2191C62.1655 11.2191 61.8119 11.2831 61.4247 11.3959V16.8615H59.49V10.1398C60.4885 9.7525 61.6654 9.51172 62.7296 9.51172C63.5681 9.51172 64.277 9.72051 64.7114 10.0758C65.3563 9.78618 66.0972 9.51172 67.1445 9.51172C68.8535 9.51172 69.9328 10.1718 69.9328 12.2832V16.8615H67.983L67.9847 12.3641Z" fill="#3C3C3B"/>
<defs>
<linearGradient id="paint0_linear_1078_480" x1="0.198855" y1="17.028" x2="16.7163" y2="6.77476" gradientUnits="userSpaceOnUse">
<stop stop-color="#EC6608"/>
<stop offset="0.168" stop-color="#ED6C07"/>
<stop offset="0.3875" stop-color="#EF7A07"/>
<stop offset="0.6356" stop-color="#F39107"/>
<stop offset="0.9028" stop-color="#F9AF06"/>
<stop offset="1" stop-color="#FBBA07"/>
</linearGradient>
</defs>
</svg>
