<svg width="80" height="24" viewBox="0 0 80 24" fill="none" xmlns="http://www.w3.org/2000/svg">
<path d="M23.3376 19.9536C23.28 21.504 22.2096 22.8288 20.7072 23.208C14.7264 24.264 8.6064 24.264 2.6256 23.208C1.1232 22.824 0.0576 21.4992 0 19.9536V4.0464C0.0576 2.5008 1.128 1.176 2.6304 0.792C8.6112 -0.264 14.7312 -0.264 20.712 0.792C22.2144 1.1712 23.2848 2.496 23.3424 4.0464L23.3376 19.9536Z" fill="#AC0047"/>
<path d="M12.9595 7.14236C11.6683 6.91196 10.8043 7.62236 10.8043 8.72636V12.432L8.77389 11.2224V8.72636C8.77389 6.47996 10.3291 4.88636 12.9595 5.23196V7.14236ZM3.49389 20.16H4.40589V17.808C4.40109 17.5824 4.48269 17.3664 4.64109 17.2032C4.80909 17.0496 5.03469 16.9632 5.26509 16.9728C5.42829 16.9776 5.58669 16.992 5.74509 17.0208V16.1088C5.55789 16.08 5.37069 16.0656 5.17869 16.0608C4.28589 16.0224 3.53229 16.7184 3.49389 17.6112C3.48909 17.6736 3.49389 17.7408 3.49869 17.8032L3.49389 20.16ZM6.64269 19.8C6.41229 19.536 6.28749 19.1904 6.30669 18.84V17.4C6.28749 17.0496 6.41229 16.704 6.64269 16.44C6.89709 16.1904 7.24749 16.056 7.60269 16.0704H9.06669V16.968H7.62669C7.51149 16.9536 7.39149 16.9872 7.30029 17.0592C7.22829 17.1504 7.19469 17.2704 7.20909 17.3856V17.6832H8.79789V18.5376H7.19949V18.8352C7.18509 18.9552 7.21869 19.0704 7.29069 19.1664C7.38189 19.2384 7.50189 19.272 7.61709 19.2576H9.05709V20.16H7.62189C7.26669 20.1744 6.91629 20.04 6.66189 19.7904L6.64269 19.8ZM10.2139 19.8096C9.97869 19.5456 9.85869 19.2 9.87789 18.8496V16.0896H10.7851V18.8448C10.7707 18.9648 10.8043 19.0848 10.8763 19.1808C10.9675 19.2576 11.0827 19.2912 11.1979 19.2768H12.4603L12.1483 20.16H11.1883C10.8331 20.1744 10.4875 20.0448 10.2283 19.8L10.2139 19.8096ZM17.7595 20.16V18.6048L16.3867 16.0848H17.4139L18.2107 17.664L19.0123 16.0848H20.0395L18.6715 18.6048V20.16H17.7595ZM15.5323 16.6608C15.3355 16.0848 15.0523 16.0848 14.8987 16.0848H14.6443C14.4955 16.0848 14.2123 16.0848 14.0107 16.6608C13.7179 17.5392 12.7963 20.16 12.7963 20.16H13.7563L14.0203 19.3728H15.5275L15.7963 20.16H16.7563L15.5323 16.6608ZM14.3083 18.528L14.7883 17.1456L15.2683 18.528H14.3083ZM17.2795 13.9632C17.2075 13.752 17.1019 13.752 17.0491 13.752H16.9579C16.9051 13.752 16.7995 13.752 16.7275 13.9632L16.2811 15.2496H16.6363L16.7323 14.9616H17.2795L17.3755 15.2496H17.7307L17.2795 13.9632ZM16.7995 14.6496L16.9723 14.1408L17.1451 14.6496H16.7995ZM5.02509 15.2496V14.2608C5.02989 14.1456 4.93389 14.0496 4.81869 14.0448C4.81389 14.0448 4.80909 14.0448 4.80429 14.0448C4.68909 14.04 4.59309 14.1264 4.58829 14.2416C4.58829 14.2464 4.58829 14.256 4.58829 14.2608V15.2496H4.25229V14.2608C4.25709 14.1456 4.17069 14.0496 4.05549 14.0448C4.05069 14.0448 4.04109 14.0448 4.03629 14.0448C3.92109 14.04 3.82029 14.1312 3.81549 14.2464C3.81549 14.2512 3.81549 14.256 3.81549 14.2608H3.83949V15.2496H3.48909V14.2656C3.48429 13.968 3.71949 13.7232 4.01709 13.7184C4.02669 13.7184 4.03149 13.7184 4.04109 13.7184C4.18509 13.7184 4.32909 13.776 4.42509 13.8864C4.52109 13.776 4.66509 13.7184 4.80909 13.7184C5.10669 13.7088 5.35149 13.944 5.36109 14.2416C5.36109 14.2512 5.36109 14.256 5.36109 14.2656V15.2496H5.02509ZM6.69069 14.4912C6.67149 14.0784 6.98829 13.7328 7.40109 13.7136C7.41069 13.7136 7.41549 13.7136 7.42509 13.7136C7.83789 13.7184 8.16429 14.0544 8.15949 14.4672C8.15949 14.4768 8.15949 14.4816 8.15949 14.4912C8.17869 14.904 7.86189 15.2496 7.44909 15.2688C7.43949 15.2688 7.43469 15.2688 7.42509 15.2688C7.01229 15.264 6.68589 14.928 6.69069 14.5152C6.69069 14.5056 6.69069 14.5008 6.69069 14.4912ZM7.02669 14.4912C7.00269 14.7312 7.17549 14.9472 7.41549 14.9712C7.42029 14.9712 7.42029 14.9712 7.42509 14.9712C7.66509 14.952 7.84269 14.7408 7.82349 14.5008C7.82349 14.496 7.82349 14.496 7.82349 14.4912C7.85229 14.256 7.67949 14.04 7.44429 14.0112C7.43949 14.0112 7.42989 14.0112 7.42509 14.0112C7.18509 14.0304 7.00749 14.2368 7.02669 14.472C7.02189 14.4768 7.02669 14.4864 7.02669 14.4912ZM10.4587 13.872C10.5595 13.9776 10.6171 14.1216 10.6123 14.2656V15.2256H10.2811V14.2608C10.2907 14.1504 10.2139 14.0544 10.1083 14.0448C10.0939 14.0448 10.0795 14.0448 10.0603 14.0448C9.94989 14.0352 9.85389 14.112 9.84429 14.2224C9.84429 14.2368 9.84429 14.2512 9.84429 14.2608V15.2496H9.51309V14.2896C9.50829 14.1456 9.56589 14.0016 9.66669 13.896C9.77229 13.7952 9.91629 13.7376 10.0651 13.7424C10.2139 13.7376 10.3579 13.7952 10.4635 13.896L10.4587 13.872ZM12.6283 15.2496H12.0667V13.752H12.6283C12.8107 13.7472 12.9835 13.824 13.1083 13.9536C13.2331 14.1072 13.3003 14.304 13.2907 14.5008C13.3003 14.6976 13.2331 14.8896 13.1083 15.0432C12.9835 15.1776 12.8107 15.2496 12.6283 15.2496ZM12.6283 14.064H12.3979V14.9328H12.6283C12.9307 14.9328 12.9691 14.6688 12.9739 14.496C12.9739 14.2848 12.9163 14.064 12.6283 14.064ZM14.5915 15.2496V13.752H14.9227V15.2496H14.5915ZM19.3723 15.2496C19.2379 15.2592 19.1083 15.2064 19.0123 15.1152C18.9259 15.0192 18.8827 14.8944 18.8875 14.7648V13.752H19.2187V14.76C19.2187 14.8848 19.2475 14.9136 19.3675 14.9184H19.8475V15.2496H19.3723V15.2496Z" fill="white"/>
<path d="M13.4216 5.23205H15.3416V7.15205H13.4216V5.23205ZM11.0936 2.08325C11.7368 2.08325 12.26 2.60645 12.26 3.24965C12.26 3.89285 11.7368 4.41605 11.0936 4.41605C10.4504 4.41605 9.92725 3.89285 9.92725 3.24965C9.92725 2.60645 10.4456 2.08325 11.0936 2.08325Z" fill="#CCC7BE"/>
</svg>
