<svg fill="none" height="24" viewBox="0 0 120 24" width="120" xmlns="http://www.w3.org/2000/svg"><g clip-rule="evenodd" fill="#007bc4" fill-rule="evenodd"><path d="m41.0995 4.47496c0-.84069-.6794-1.47496-1.5211-1.47496s-1.52.63427-1.52 1.47496.6783 1.47596 1.52 1.47596c.197.00397.3928-.03116.5762-.10337.1833-.07222.3505-.18008.492-.31735.1412-.13728.2541-.30121.3316-.48235.0776-.18114.1185-.37586.1203-.57289zm-30.7848 1.78658v-3.18839h-10.3147v1.90382h1.13628v8.23453h-1.13628v1.8888h10.3147v-3.1874h-2.05112v1.3026h-4.90985v-3.23852h4.47197v-1.81264h-4.47598v-3.18737h4.90985v1.28457zm10.5081-3.18839-3.3066 8.48595-3.2606-8.48595h-3.0842l4.7956 12.08625h1.3297l4.7806-12.08625z"/><path d="m32.4511 10.1863 4.2506 4.9099h-2.1554l-4.0581-4.7666h-5.7996v4.7666h-1.7566v-12.02418h8.1925c1.7415 0 2.8186.32465 3.5711 1.03307.6012.57616.9299 1.38779.9299 2.46395 0 2.12628-1.3577 3.43896-3.1734 3.61626zm-7.7625-5.65235v4.3247h6.4639c1.1072 0 1.6974-.22145 2.0952-.63528.3698-.4008.5612-.95892.5612-1.6373 0-.6493-.2065-1.15131-.5752-1.49099-.4138-.38377-1.0331-.56113-2.1102-.56113z"/><path d="m41.852 14.7866c-.6493-.3246-.9449-.6012-.9449-1.3136h.015v-6.42993h-3.4529v.30962c.8266.56113.9439.90181.9439 1.52005v4.60926c0 .6944-.2946.989-.9439 1.3136v.3096h4.3828zm-39.18465 2.3657v.5011h-1.00201v3.2765h-.61824v-3.2765h-1.0180378v-.5011zm2.98098 1.3277c-.09438-.1874-.24318-.3417-.42685-.4429-.19129-.1018-.40367-.1573-.62025-.1623-.18248-.005-.36389.0293-.53206.1002-.15616.0635-.29391.1651-.40081.2956v-1.3698h-.6002v4.0442h.61924v-1.6824c-.0115-.2255.06257-.4471.20742-.6203.06904-.0749.15381-.1336.24822-.1719.09442-.0383.19615-.0551.29787-.0495.10139-.004.20249.0136.2965.0517.09403.0383.17878.096.2486.1697.14431.1736.21831.3948.20741.6203v1.6824h.61924v-1.7716c.00467-.2409-.05076-.4794-.16132-.6934z"/><path d="m9.09024 19.6603h-2.30462c.00321.1091.02836.2163.07399.3153s.11078.1878.19154.2609c.16044.1477.37223.2269.59019.2204.33868 0 .57515-.1322.70842-.4128h.66333c-.08449.2732-.25537.5116-.48698.6794-.25766.1835-.56866.2767-.88477.2655-.26766.0066-.53213-.0591-.76554-.1904-.22217-.1318-.40541-.3202-.53107-.5461-.12617-.2521-.19186-.5302-.19186-.812 0-.282.06569-.5601.19186-.8122.11708-.2321.30287-.4225.53207-.5451.23796-.1345.50834-.2012.78157-.1924.26397-.0064.52465.0597.75351.1914.2196.1172.39928.2972.51604.517.12549.2365.1912.5.19138.7676-.00701.0501-.01002.1002-.01403.1473-.00401.047-.00701.1002-.01503.1462zm-.63527-.501c.00389-.104-.01665-.2076-.05998-.3022s-.10824-.1777-.18952-.2429c-.16608-.1372-.3758-.2104-.59119-.2064-.20186-.0044-.39762.0696-.54609.2064-.15089.1441-.2451.3375-.26554.5451z"/><path d="m13.2226 18.4799c-.0965-.1912-.2518-.3463-.4429-.4429-.1949-.1038-.4136-.1545-.6343-.1473-.1724-.004-.3434.0303-.501.1002-.1459.0728-.2762.1732-.3838.2956v-.3397h-.6202v2.996h.6202v-1.6793c-.0119-.2255.0619-.4469.2064-.6203.0691-.0749.1539-.1336.2483-.1719s.1961-.0551.2978-.0495c.1016-.0042.2028.0134.297.0517s.1791.096.2491.1697c.144.1738.2176.395.2065.6203v1.6823h.6232v-1.7715c.0027-.2413-.0545-.4796-.1663-.6934z"/><path d="m16.6604 19.6603h-2.3046c.0035.1091.0287.2161.0743.3151.0457.099.1107.1878.1913.2611.1605.1475.3722.2267.5902.2204.3396 0 .5761-.1322.7083-.4128h.6644c-.0852.2732-.2563.5114-.488.6794-.2575.1835-.5685.2767-.8847.2655-.2684.0064-.5336-.0597-.7676-.1914-.2221-.1318-.4054-.3202-.531-.5461-.1259-.2523-.1914-.5302-.1914-.812 0-.282.0655-.5599.1914-.8122.1169-.2319.3023-.4221.531-.5451.2384-.1345.5091-.201.7826-.1924.2637-.0066.524.0597.7525.1914.2192.116.3988.2946.516.513.1246.2367.19.5.1904.7675-.006.0491-.01.1002-.0141.1473-.0006.0507-.0044.1012-.011.1513zm-.6342-.501c.004-.1042-.0167-.208-.0604-.3026-.0437-.0948-.1092-.1777-.1912-.2425-.1657-.137-.375-.2102-.5901-.2064-.2015-.0042-.3969.0698-.5451.2064-.1512.1439-.2457.3373-.2665.5451z"/><path d="m20.1584 20.9298.9299-2.996h-.6203l-.6192 2.4048-.6012-2.4048h-.6483l-.6343 2.4208-.6192-2.4208h-.6403l.9439 2.996h.6493l.6012-2.2134.6012 2.2134zm5.3267-3.7776v3.7926h-.6192v-1.6493h-1.7856v1.6533h-.6203v-3.7966h.6193v1.6233h1.7866v-1.6233z"/><path d="m26.5041 19.6603h2.2876c.0161-.1002.0301-.2004.0441-.2945-.0002-.2676-.0659-.5311-.1914-.7676-.1172-.2196-.2972-.3992-.517-.516-.2281-.1327-.4886-.1992-.7525-.1924-.2734-.0086-.5439.0575-.7826.1914-.2284.1236-.4138.3142-.5311.5461-.1258.2521-.1913.5298-.1913.8116s.0655.5595.1913.8116c.1249.2263.3085.4151.5311.5461.2337.1327.499.1992.7676.1924.3164.0112.6278-.082.8857-.2655.2309-.1686.4016-.4066.487-.6794h-.6643c-.1333.2806-.3688.4128-.7084.4128-.2179.0063-.4297-.0729-.5902-.2204-.0806-.0733-.1457-.1621-.1914-.2611-.0455-.099-.0708-.206-.0742-.3151zm1.4139-1.0471c.0815.065.1469.1479.1904.2427.0434.0946.0641.1982.0601.3024h-1.6533c.0208-.2074.115-.4008.2655-.5451.1491-.1366.3451-.2106.5471-.2064.215-.0038.4244.0694.5902.2064z"/><path d="m30.1786 18.0081c.1617-.0926.3457-.1387.5321-.1333v.6493h-.1634c-.2364 0-.4268.0591-.5451.1924-.1182.1172-.1923.3397-.1923.6493v1.5792h-.6203v-2.9961h.6203v.4449c.0869-.1581.214-.2905.3687-.3837zm5.5642.4719c-.0966-.1912-.2517-.3463-.4429-.4429-.1912-.1004-.4044-.1511-.6203-.1473-.2168.0018-.4296.0575-.6192.1623-.1838.095-.3335.2445-.4289.4279-.0998-.1888-.2541-.3433-.4429-.4429-.2006-.1022-.4234-.1529-.6483-.1473-.1723-.004-.3435.0303-.501.1002-.1459.0728-.2761.1732-.3837.2956v-.3397h-.6193v2.996h.6193v-1.6793c-.0121-.2255.0617-.4469.2064-.6203.0687-.0747.1535-.1334.2477-.1717s.1958-.0553.2974-.0497c.1016-.0042.203.0134.2974.0515.0943.0383.1795.0962.2497.1699.1439.1738.2176.395.2064.6203v1.6824h.6202v-1.6824c-.012-.2255.0617-.4469.2064-.6203.069-.0749.1539-.1334.2483-.1717s.196-.0553.2978-.0497c.1014-.004.2024.0136.2964.0517.094.0383.1788.096.2487.1697.1443.1736.2183.3948.2074.6203v1.6824h.6193v-1.7716c.0036-.2409-.0517-.479-.1613-.6934z"/><path d="m39.2107 19.6603h-2.2876c.0034.1091.0286.2161.0743.3151.0455.099.1107.1878.1912.2611.1605.1475.3724.2267.5902.2204.3397 0 .5752-.1322.7084-.4128h.6634c-.0844.2732-.2554.5116-.487.6794-.2577.1835-.5686.2767-.8848.2655-.2683.0066-.5337-.0595-.7675-.1914-.2223-.1318-.4055-.3202-.5311-.5461-.1259-.2523-.1914-.5302-.1914-.812 0-.282.0655-.5599.1914-.8122.1166-.2321.3022-.4225.5311-.5451.2384-.1345.509-.201.7825-.1924.2638-.0066.5241.0597.7525.1914.2201.1168.4002.297.5171.517.1246.2367.19.5.1904.7676-.0161.0659-.0267.1328-.0321.2004-.003.03-.006.0631-.011.0941zm-.6203-.501c.004-.1042-.0166-.208-.0605-.3026-.0437-.0948-.109-.1777-.191-.2425-.1657-.137-.3751-.2102-.5902-.2064-.2016-.0042-.397.0698-.5451.2064-.1511.1439-.2456.3373-.2665.5451z"/><path d="m39.6085 20.498c.1136.1555.2665.2777.4429.3547.2052.0899.4254.1398.6493.1473.2064.0014.4108-.0389.6012-.1183.1615-.0609.301-.1687.4008-.3096.1012-.1307.1533-.2928.1473-.4579-.0018-.1663-.0589-.3275-.1623-.4579-.103-.1139-.2291-.2042-.3698-.2656-.1723-.0721-.3499-.1314-.531-.1773-.1002-.0271-.2004-.0591-.3006-.1002-.1026-.0275-.1966-.081-.2726-.1553-.0278-.0267-.0499-.0588-.0651-.0942-.015-.0355-.0231-.0738-.0231-.1122-.0012-.0495.0103-.0986.0335-.1425.0231-.0439.0571-.0812.0988-.108.1108-.068.2403-.099.3697-.0892.1429-.0044.2834.037.4009.1182.0476.0403.0865.09.1144.1457.0278.0557.0443.1166.0479.179h.6202c-.0034-.1355-.0354-.2686-.094-.3906-.0585-.1221-.1422-.2305-.2457-.3179-.236-.1817-.5302-.2717-.8276-.2535-.2062-.0006-.4104.0397-.6012.1183-.1652.0605-.309.1683-.4139.3096-.0992.126-.1513.2826-.1472.4429-.0051.1719.0523.3399.1613.4729.1002.1169.227.208.3697.2656.1772.0721.3593.1312.5451.1763.179.0379.3525.0974.517.1774.0485.0214.0898.0565.1187.101.0286.0445.0439.0964.0437.1495.002.0535-.0109.1064-.0367.1531-.0261.0469-.0643.0857-.1106.1124-.1239.0766-.2688.1116-.4139.1002-.1487.003-.2939-.0439-.4128-.1333-.0495-.0398-.0906-.0889-.121-.1447-.0303-.0557-.0495-.1168-.0563-.1799h-.6544c.0151.1741.0762.3413.1774.484z"/></g></svg>