<svg viewBox="0 0 120 24" fill="none" xmlns="http://www.w3.org/2000/svg">
<path d="M11.8107 10.9459H11.558L11.1162 10.6903C11.0994 10.6906 11.0827 10.6874 11.0672 10.6811C11.0516 10.6748 11.0375 10.6654 11.0257 10.6534C11.0139 10.6415 11.0046 10.6272 10.9985 10.6116C10.9923 10.596 10.9894 10.5793 10.9899 10.5625V9.8592C10.9899 9.73141 10.9899 9.73141 11.1162 9.60361L16.4217 6.28086L8.71581 2H8.21046L0.441815 6.28159L9.15763 11.3935C9.28397 11.3935 9.28397 11.5213 9.28397 11.6491V19.0614C9.28397 19.1892 9.28397 19.1892 9.15763 19.317L8.71581 19.5726H8.46314L8.02132 19.317C7.89499 19.317 7.89499 19.1892 7.89499 19.0614V12.4794C7.89538 12.4627 7.89239 12.446 7.8862 12.4304C7.88001 12.4148 7.87074 12.4006 7.85895 12.3887C7.84716 12.3768 7.83309 12.3673 7.81757 12.361C7.80206 12.3546 7.78542 12.3514 7.76865 12.3516L0 7.81517V16.6332C0.0293919 16.8447 0.116858 17.0439 0.252675 17.2087L8.08413 21.8722C8.21046 21.8722 8.21047 22 8.3368 22C8.46314 22 8.58948 22 8.58948 21.8722L16.4209 17.2079C16.5047 17.1381 16.5711 17.0498 16.615 16.9499C16.6588 16.8501 16.6789 16.7414 16.6736 16.6325V7.81517L11.8107 10.9459Z" fill="url(#paint0_linear_456_45179)"/>
<path d="M67.8321 19.3803H65.8143V9.47633C66.8191 9.06703 67.8856 8.82931 68.9691 8.77307C71.3863 8.77307 73.074 10.2972 73.074 12.4792C73.074 14.9563 71.5776 16.3774 68.9691 16.3774V14.7796C69.2462 14.7917 69.5225 14.7434 69.779 14.638C70.0356 14.5326 70.266 14.3725 70.4545 14.1691C70.8317 13.6892 71.0219 13.0887 70.9898 12.4792C71.0168 12.2061 70.9832 11.9304 70.8916 11.6717C70.7999 11.413 70.6524 11.1776 70.4595 10.9824C70.2666 10.7872 70.033 10.6369 69.7754 10.5422C69.5178 10.4475 69.2425 10.4107 68.9691 10.4344C68.5715 10.3747 68.1659 10.4659 67.8321 10.69V19.3803ZM26.0845 16.8243C25.5691 16.8453 25.0551 16.7584 24.5752 16.5693C24.0953 16.3803 23.6601 16.0932 23.2975 15.7263C22.9348 15.3595 22.6527 14.9211 22.4692 14.439C22.2857 13.957 22.2047 13.442 22.2316 12.9269C22.2048 12.4117 22.2857 11.8967 22.4692 11.4146C22.6527 10.9325 22.9348 10.494 23.2974 10.1272C23.66 9.76028 24.0952 9.4731 24.5751 9.28395C25.055 9.0948 25.5691 9.00786 26.0845 9.02867C26.7898 8.93989 27.5041 9.09807 28.1059 9.47633V11.3926C27.6099 10.9288 26.9526 10.6768 26.2736 10.69C26.0002 10.6663 25.7249 10.7031 25.4673 10.7978C25.2097 10.8925 24.9762 11.0428 24.7833 11.238C24.5903 11.4332 24.4428 11.6686 24.3512 11.9273C24.2595 12.186 24.226 12.4617 24.253 12.7348C24.226 13.0079 24.2595 13.2836 24.3512 13.5423C24.4428 13.801 24.5903 14.0364 24.7833 14.2316C24.9762 14.4268 25.2097 14.5771 25.4673 14.6718C25.7249 14.7665 26.0002 14.8033 26.2736 14.7796C26.6464 14.7678 27.017 14.7189 27.38 14.6335H27.3902C27.625 14.5759 27.8646 14.5402 28.1059 14.5269V16.3803L27.9219 16.4366L27.8795 16.4497L27.8196 16.4687C27.2625 16.674 26.6775 16.7939 26.0845 16.8243ZM91.3885 16.6323C89.2926 16.6323 88.2308 15.6216 88.2308 13.6294V6.28065H90.2514V9.02867H92.7782V10.6265H90.2514V13.6294C90.2514 14.3494 90.7714 14.7796 91.639 14.7796C92.0968 14.8318 92.5596 14.7426 92.9651 14.524V16.3774C92.462 16.5671 91.9258 16.6537 91.3885 16.6323ZM84.3779 16.6323C83.6112 16.6087 82.8633 16.3887 82.206 15.9933H82.3557V14.1406C82.9792 14.7063 83.788 15.0245 84.6298 15.0352C84.7341 15.0472 84.8397 15.0385 84.9406 15.0096C85.0415 14.9807 85.1357 14.9323 85.2178 14.8669C85.3 14.8016 85.3684 14.7207 85.4193 14.6289C85.4701 14.5371 85.5024 14.4362 85.5142 14.3319C85.5142 14.0595 85.206 13.8697 84.3779 13.6294C82.7625 13.368 82.1038 12.7012 82.1038 11.329C82.083 10.997 82.1417 10.6649 82.2749 10.3601C82.4081 10.0553 82.6121 9.78661 82.8698 9.57637C83.4417 9.18364 84.1269 8.99013 84.8197 9.02575C85.5231 8.96516 86.2283 9.12138 86.8403 9.4734V11.329C86.2558 10.8911 85.5498 10.6457 84.8197 10.6265C84.2245 10.6265 83.9353 10.8565 83.9353 11.329C83.9353 11.5627 84.0814 11.7614 84.8197 12.0316C85.5266 12.0727 86.2053 12.3231 86.7695 12.7509C86.975 12.9565 87.1331 13.2045 87.2326 13.4776C87.3321 13.7507 87.3707 14.0423 87.3457 14.3319C87.3486 16.0283 85.815 16.6323 84.3779 16.6323ZM77.5564 16.5687C77.041 16.5897 76.5269 16.5028 76.047 16.3137C75.5671 16.1247 75.132 15.8376 74.7693 15.4707C74.4067 15.1039 74.1246 14.6655 73.9411 14.1834C73.7575 13.7014 73.6766 13.1864 73.7035 12.6713C73.7035 11.6494 74.1094 10.6694 74.8319 9.94684C75.5545 9.22428 76.5345 8.81835 77.5564 8.81835C78.5782 8.81835 79.5582 9.22428 80.2808 9.94684C81.0034 10.6694 81.4093 11.6494 81.4093 12.6713C81.4361 13.1862 81.3552 13.701 81.1718 14.1829C80.9884 14.6648 80.7065 15.1031 80.3442 15.4699C79.9818 15.8367 79.5469 16.1239 79.0672 16.3131C78.5876 16.5023 78.0738 16.5893 77.5586 16.5687H77.5564ZM77.5564 10.6265C76.358 10.6265 75.7249 11.3334 75.7249 12.6713C75.6995 12.9282 75.7279 13.1875 75.8081 13.4328C75.8884 13.6782 76.0187 13.9042 76.1909 14.0964C76.3632 14.2887 76.5735 14.4431 76.8085 14.5497C77.0436 14.6564 77.2983 14.713 77.5564 14.716C78.7548 14.716 79.3879 14.0091 79.3879 12.6713C79.3901 11.3714 78.7226 10.6265 77.5586 10.6265H77.5564ZM61.2632 16.5687C60.7479 16.5896 60.2339 16.5026 59.7541 16.3135C59.2743 16.1244 58.8392 15.8373 58.4767 15.4705C58.1141 15.1037 57.8321 14.6653 57.6486 14.1833C57.4651 13.7013 57.3842 13.1863 57.411 12.6713C57.404 12.1609 57.4985 11.6542 57.6889 11.1806C57.8794 10.707 58.1621 10.276 58.5205 9.91262C58.8789 9.54921 59.306 9.26065 59.7769 9.06369C60.2478 8.86673 60.7532 8.76531 61.2636 8.76531C61.774 8.76531 62.2794 8.86673 62.7503 9.06369C63.2212 9.26065 63.6483 9.54921 64.0067 9.91262C64.3652 10.276 64.6478 10.707 64.8383 11.1806C65.0287 11.6542 65.1232 12.1609 65.1162 12.6713C65.143 13.1864 65.0621 13.7014 64.8785 14.1834C64.695 14.6655 64.4129 15.1039 64.0503 15.4707C63.6877 15.8376 63.2525 16.1247 62.7726 16.3137C62.2927 16.5028 61.7786 16.5897 61.2632 16.5687ZM61.2632 10.6265C60.0656 10.6265 59.4324 11.3334 59.4324 12.6713C59.4071 12.9281 59.4355 13.1874 59.5157 13.4327C59.5959 13.678 59.7262 13.9039 59.8983 14.0962C60.0704 14.2884 60.2807 14.4428 60.5156 14.5495C60.7506 14.6562 61.0052 14.7129 61.2632 14.716C62.4616 14.716 63.0948 14.0091 63.0948 12.6713C63.1146 12.4155 63.0825 12.1583 63.0002 11.9153C62.9179 11.6723 62.7872 11.4485 62.6161 11.2574C62.4449 11.0663 62.2368 10.9119 62.0043 10.8034C61.7717 10.695 61.5197 10.6348 61.2632 10.6265ZM45.3477 16.5687C44.8323 16.5897 44.3182 16.5028 43.8383 16.3137C43.3584 16.1247 42.9232 15.8376 42.5606 15.4707C42.198 15.1039 41.9159 14.6655 41.7324 14.1834C41.5488 13.7014 41.4679 13.1864 41.4947 12.6713C41.4679 12.1561 41.5488 11.6411 41.7324 11.159C41.9159 10.6769 42.198 10.2384 42.5606 9.87156C42.9232 9.50469 43.3584 9.2175 43.8383 9.02835C44.3182 8.83921 44.8323 8.75226 45.3477 8.77307C45.8631 8.75226 46.3772 8.83921 46.8571 9.02835C47.337 9.2175 47.7721 9.50469 48.1347 9.87156C48.4973 10.2384 48.7794 10.6769 48.963 11.159C49.1465 11.6411 49.2274 12.1561 49.2006 12.6713C49.2274 13.1864 49.1465 13.7014 48.963 14.1834C48.7794 14.6655 48.4973 15.1039 48.1347 15.4707C47.7721 15.8376 47.3369 16.1247 46.857 16.3137C46.3771 16.5028 45.863 16.5897 45.3477 16.5687V16.5687ZM45.3477 10.6265C44.1493 10.6265 43.5161 11.3334 43.5161 12.6713C43.4908 12.9282 43.5192 13.1875 43.5994 13.4328C43.6796 13.6782 43.81 13.9042 43.9822 14.0964C44.1545 14.2887 44.3648 14.4431 44.5998 14.5497C44.8349 14.6564 45.0896 14.713 45.3477 14.716C46.546 14.716 47.1792 14.0091 47.1792 12.6713C47.1792 11.3714 46.5117 10.6265 45.3477 10.6265ZM51.9165 16.3781H50.1477V9.47633C51.2233 9.00513 52.3861 8.76552 53.5603 8.77307C54.391 8.6965 55.2213 8.92379 55.8972 9.41279C56.1988 9.72267 56.4286 10.095 56.5704 10.5035C56.7123 10.912 56.7626 11.3466 56.718 11.7767V16.3774H54.6974V11.7767C54.6974 11.0566 54.1781 10.6265 53.3098 10.6265C52.8326 10.5809 52.3522 10.6692 51.9223 10.8814V16.3774L51.9165 16.3781ZM38.9687 16.3781H36.9473V11.7774C36.9087 11.3417 36.9688 10.9029 37.1232 10.4936C37.2775 10.0844 37.5222 9.71517 37.839 9.41352C38.4953 8.94163 39.2966 8.71521 40.1028 8.7738C40.3361 8.78313 40.5674 8.8209 40.7915 8.88626C41.102 8.97496 41.4224 9.02403 41.7452 9.03232V10.8814C41.3117 10.6806 40.8343 10.5929 40.3577 10.6265C39.3441 10.6265 38.9702 10.9383 38.9702 11.7767V16.3774L38.9687 16.3781ZM34.0452 16.3781V11.7774C34.0452 11.0574 33.526 10.6272 32.6577 10.6272C32.1805 10.5816 31.7 10.6699 31.2702 10.8821V16.3781H29.2422V5.57812H31.5156V9.02867C31.753 9.01697 31.9888 8.98224 32.2195 8.92497H32.2385C32.6015 8.83962 32.9722 8.7907 33.3449 8.77891C33.726 8.7805 34.1025 8.86156 34.4505 9.01692C34.7985 9.17229 35.1103 9.39853 35.3659 9.6812C35.6215 9.96388 35.8153 10.2968 35.9349 10.6586C36.0546 11.0204 36.0974 11.4032 36.0608 11.7825V16.3833L34.0452 16.3781Z" fill="#3C3C3B"/>
<defs>
<linearGradient id="paint0_linear_456_45179" x1="-0.0666977" y1="12.02" x2="16.9079" y2="12.02" gradientUnits="userSpaceOnUse">
<stop stop-color="#006CAF"/>
<stop offset="0.332" stop-color="#0081C5"/>
<stop offset="0.733" stop-color="#0095DA"/>
<stop offset="1" stop-color="#009CE1"/>
</linearGradient>
</defs>
</svg>
