<svg fill="none" height="24" viewBox="0 0 120 24" width="120" xmlns="http://www.w3.org/2000/svg"><path clip-rule="evenodd" d="m17.234 10.1247h-9.36477v-1.56898h9.36477zm-3.1134 7.526c0-.8825-.7109-1.5934-1.569-1.5934s-1.569.7109-1.569 1.5934.7109 1.5934 1.569 1.5934 1.569-.7109 1.569-1.5934zm-1.569 4.7559c5.5158 0 10.1001-4.1429 10.8356-9.5117h-1.5934c-.7355 4.5107-4.5845 7.9427-9.2422 7.9427-1.7162 0-3.13802-1.4218-3.13802-3.1622s1.39742-3.1625 3.13802-3.1625c1.7162 0 3.1378 1.3728 3.1378 3.1622 0 .3433-.0732.6865-.1716 1.0053.6142-.2722 1.1979-.6093 1.7406-1.0053 0-2.6229-2.1083-4.7556-4.6824-4.7556-2.59848 0-4.68236 2.1327-4.68236 4.7556-.02441 2.5988 2.05947 4.7315 4.65796 4.7315zm-10.83562-9.5117c.49021 3.5056 2.5985 6.4718 5.54049 8.1389-.61276-.9806-.95625-2.1329-.95625-3.3831v-4.7558zm18.65582-1.5691h4.6824c0 7.0114-5.614 12.6742-12.5272 12.6742-6.91327 0-12.527-5.6875-12.527-12.6742h7.82016v2.1574c1.15229-1.3239 2.81924-2.1574 4.68234-2.1574 2.9909 0 5.4668 2.1083 6.1042 4.9522 1.1279-1.373 1.7651-3.089 1.7651-4.9522zm-3.8978-8.7273c1.7162 0 3.1378 1.42205 3.1378 3.16244v1.59342h-1.5688v-1.59342c0-.88253-.7111-1.59343-1.569-1.59343-.1472 0-.2697.02441-.3923.04883.2451.46604.3923.98091.3923 1.52018v1.59343h-1.569v-1.59343c0-.88252-.7109-1.59342-1.569-1.59342v3.21126h-1.569v-3.16244c-.8579 0-1.5688.7109-1.5688 1.59367v1.59343h-1.569v-1.59367c0-.56394.14697-1.07856.39207-1.5197-.12255-.02441-.26951-.04907-.39207-.04907-.85811 0-1.56901.7109-1.56901 1.59343v1.59342h-1.56902v-1.59342c0-1.74064 1.3974-3.16244 3.13803-3.16244.56394 0 1.10322.17162 1.569.44139.4656-.26977.9804-.44139 1.5444-.44139.2697 0 .5148.04883.7599.09814.2451-.07373.5149-.09814.8091-.09814.5639 0 1.1032.17162 1.569.44139.4902-.31884 1.0051-.49046 1.5934-.49046zm-3.5791-1.83853h.7353v.68649h-.7353v.73531h-.6865v-.73531h-.7356v-.68649h.7356v-.75997h.6865z" fill="#002453" fill-rule="evenodd"/></svg>