<svg fill="none" height="24" viewBox="0 0 120 24" width="120" xmlns="http://www.w3.org/2000/svg"><g clip-rule="evenodd" fill="#0047bb" fill-rule="evenodd"><path d="m38.5671 14.3167c-.016 1.0499.2591 1.9549 1.4083 1.9549.8576 0 1.3917-.4045 1.5052-1.1636h2.8486c-.0972 1.0503-.7613 1.8096-1.5378 2.2619-.7122.4523-1.6188.6301-2.5735.6301-3.253 0-4.5477-1.3895-4.5477-4.572 0-2.5687 1.9257-4.02294 4.3698-4.02294 3.3019 0 4.3536 1.89044 4.3536 4.91164zm2.9135-1.6484c0-.4363-.1301-.8725-.3724-1.2114-.2428-.3392-.5988-.5498-1.0682-.5168-1.0683.048-1.3269.8077-1.408 1.7282z"/><path d="m0 17.7575v-11.66466h5.3734c2.86452 0 4.7423.92103 4.7423 3.74794 0 2.82752-1.87778 3.74862-4.7423 3.74862h-2.13628v4.1681zm4.90398-6.43c1.27857-.0485 1.81282-.63 1.81282-1.48672 0-.85562-.53425-1.43746-1.81282-1.48599h-1.66686v2.97271z"/><path d="m19.6764 13.7027c0 2.9884-2.185 4.2973-4.7263 4.2973-2.5406 0-4.7258-1.3089-4.7258-4.2973 0-2.9891 2.1852-4.29764 4.7258-4.29764 2.5413 0 4.7263 1.30854 4.7263 4.29764zm-4.7263 2.52c1.2953 0 1.5703-1.3729 1.5703-2.52 0-1.1472-.275-2.5205-1.5703-2.5205-1.2942 0-1.5694 1.3733-1.5694 2.5205 0 1.1471.2752 2.52 1.5694 2.52z"/><path d="m25.0339 12.1513c0-.2747-.0485-.5168-.194-.6782-.1621-.1776-.4207-.2909-.8418-.2909-.4531 0-.7281.2581-.7281.7272 0 .5973 1.2462.5652 3.1721 1.1632.971.3065 1.6347.9047 1.6347 2.2295 0 2.1488-2.0234 2.6979-3.8845 2.6979-1.9905 0-3.9328-.4035-3.9165-2.8758h2.9131c-.0485.2424.0326.517.2105.727.1782.21.4368.3715.7283.3715.599 0 1.0356-.226 1.0356-.743 0-1.4381-4.8067-.5819-4.8067-3.5221 0-2.00287 2.1362-2.55254 3.7546-2.55254 1.9263 0 3.7067.50061 3.8361 2.74624z"/><path d="m30.1022 9.64719v-1.22804l3.0746-1.16315v2.39119h1.7809v1.93881h-1.7809v3.2149c0 .2102-.1285 1.2603.5834 1.2603.4042 0 .8253 0 1.1814-.0482v1.8251c-.6961.1297-1.1977.1619-1.6516.1619-2.0872 0-3.3499-.2908-3.1878-2.7787v-3.6353h-1.5862v-1.93881z"/><path d="m45.7213 9.56542h1.5422v8.13598h-1.5422zm-.1461-3.56542h1.8347v1.66956h-1.8347z"/><path d="m49.738 9.56542v-1.73392l1.5415-.48636v2.22028l1.8839-.04853v1.15101l-1.8839-.0168v5.2518c0 .5828.4555.8582 1.0072.8582.2441 0 .5681-.0317.8122-.0964v1.183c-.3577.0163-.6986.0977-1.0558.0977-.3731 0-.6653-.0165-1.0395-.0814-.2425-.0482-.6489-.1785-.9089-.5349-.2758-.3889-.3567-.4214-.3567-1.5071v-5.1709l-1.3968.0168v-1.15101z"/><path d="m59.2188 12.6777c0-1.4106-.0809-2.2374-1.7212-2.2374-.7789 0-1.5097.4546-1.5256 1.2972h-1.6239c.0809-1.78278 1.4776-2.41526 3.0845-2.41526 1.6726 0 3.3287.50272 3.3287 2.77156v3.8899c0 .3563.0169 1.0373.065 1.7177h-1.0389c-.1469 0-.4228.081-.4386-.1133-.0323-.3726-.065-.7288-.0814-1.1024h-.0328c-.5025 1.0212-1.412 1.4597-2.5323 1.4597-1.4125 0-2.8414-.7299-2.8414-2.3178 0-2.2858 2.0303-2.9499 3.9617-2.9499zm-1.5415 1.0697c-.9422.0484-2.1925.3886-2.1925 1.572 0 1.0047.6981 1.5071 1.607 1.5071 1.8189 0 2.1598-1.572 2.127-3.0791z"/><path d="m62.2954 6h1.5414v11.7014h-1.5414z"/><path d="m65.7551 9.56542h1.543v8.13598h-1.543zm-.1459-3.56542h1.8348v1.66956h-1.8348z"/><path d="m74.0474 12.6777c0-1.4106-.0809-2.2374-1.7212-2.2374-.7794 0-1.5097.4546-1.5256 1.2972h-1.6244c.0814-1.78278 1.4781-2.41526 3.085-2.41526 1.672 0 3.3287.50272 3.3287 2.77156v3.8899c0 .3563.0159 1.0373.065 1.7177h-1.0394c-.1464 0-.4223.081-.4387-.1133-.0322-.3726-.0644-.7288-.0808-1.1024h-.0328c-.5025 1.0212-1.412 1.4597-2.5328 1.4597-1.412 0-2.8409-.7299-2.8409-2.3178 0-2.2858 2.0292-2.9499 3.9617-2.9499zm-1.5425 1.0697c-.9417.0484-2.192.3886-2.192 1.572 0 1.0047.6981 1.5071 1.6075 1.5071 1.8184 0 2.1592-1.572 2.127-3.0791z"/><path d="m78.6961 10.7653h.0322c.52-1.02105 1.6562-1.44306 2.4679-1.44306.568 0 3.085.14612 3.085 2.75546v5.6237h-1.5425v-5.1209c0-1.3454-.5681-2.0752-1.8665-2.0752 0 0-.845-.0484-1.4944.6-.2272.2268-.6495.584-.6495 2.1717v4.4244h-1.542v-8.13598h1.5098z"/><path d="m87.1247 13.9256c-.1141 1.4264.4709 2.9009 2.0456 2.9009 1.2012 0 1.8025-.4698 1.9811-1.6532h1.6234c-.2431 1.8477-1.672 2.7721-3.6209 2.7721-2.6136 0-3.6525-1.8478-3.6525-4.2464 0-2.3831 1.2011-4.37676 3.7825-4.37676 2.4356.04906 3.5887 1.58856 3.5887 3.84136v.762zm4.124-1.0696c.0328-1.3619-.5845-2.4157-2.0784-2.4157-1.2825 0-2.0456 1.0864-2.0456 2.4157z"/></g></svg>