<svg fill="none" height="40" viewBox="0 0 40 40" width="40" xmlns="http://www.w3.org/2000/svg" xmlns:xlink="http://www.w3.org/1999/xlink"><filter id="a" color-interpolation-filters="sRGB" filterUnits="userSpaceOnUse" height="40" width="40" x="0" y="0"><feFlood flood-opacity="0" result="BackgroundImageFix"/><feColorMatrix in="SourceAlpha" result="hardAlpha" type="matrix" values="0 0 0 0 0 0 0 0 0 0 0 0 0 0 0 0 0 0 127 0"/><feOffset dy="2"/><feGaussianBlur stdDeviation="1"/><feColorMatrix type="matrix" values="0 0 0 0 0 0 0 0 0 0 0 0 0 0 0 0 0 0 0.16 0"/><feBlend in2="BackgroundImageFix" mode="normal" result="effect1_dropShadow_2746_12137"/><feBlend in="SourceGraphic" in2="effect1_dropShadow_2746_12137" mode="normal" result="shape"/></filter><g filter="url(#a)"><rect fill="#fff" height="36" rx="18" width="36" x="2"/></g><path d="m4 18c0-8.83656 7.1634-16 16-16 8.8366 0 16 7.16344 16 16 0 8.8366-7.1634 16-16 16-8.8366 0-16-7.1634-16-16z" fill="#eedc00"/><path clip-rule="evenodd" d="m5 18c0 8.2843 6.7157 15 15 15s15-6.7157 15-15c0-8.28427-6.7157-15-15-15s-15 6.71573-15 15zm15-16c-8.8366 0-16 7.16344-16 16 0 8.8366 7.1634 16 16 16s16-7.1634 16-16c0-8.83656-7.1634-16-16-16z" fill="#000" fill-opacity=".3" fill-rule="evenodd"/><g fill="#264e9a"><path d="m11.0066 22.6085-.0066-9.254 3.5212.0088c1.3343.0033 2.2042.0518 2.6095.1454.6228.1404 1.1444.4437 1.5648.9097.4204.4662.6309 1.0673.6314 1.8038.0004.5681-.1203 1.0455-.3622 1.432-.2419.3866-.5493.6899-.9222.9099-.3731.22-.7523.3653-1.1376.4358-.5239.0872-1.2824.1294-2.2758.127l-1.4307-.0036.0025 3.4907zm2.1888-7.683.0019 2.626 1.2009.003c.8648.0022 1.443-.0448 1.7346-.1409.2915-.096.5199-.247.6853-.4528s.2481-.4454.2478-.719c-.0002-.3366-.1166-.6147-.349-.8341s-.5266-.3569-.8824-.4125c-.2619-.0427-.7883-.0651-1.579-.0671z"/><path d="m23.594 22.64-.0055-7.6885-3.2247-.0081-.0012-1.5655 8.6363.0216.0011 1.5655-3.2172-.0081.0054 7.6886z"/></g></svg>