<svg fill="none" height="40" viewBox="0 0 40 40" width="40" xmlns="http://www.w3.org/2000/svg" xmlns:xlink="http://www.w3.org/1999/xlink"><filter id="a" color-interpolation-filters="sRGB" filterUnits="userSpaceOnUse" height="40" width="40" x="0" y="0"><feFlood flood-opacity="0" result="BackgroundImageFix"/><feColorMatrix in="SourceAlpha" result="hardAlpha" type="matrix" values="0 0 0 0 0 0 0 0 0 0 0 0 0 0 0 0 0 0 127 0"/><feOffset dy="2"/><feGaussianBlur stdDeviation="1"/><feColorMatrix type="matrix" values="0 0 0 0 0 0 0 0 0 0 0 0 0 0 0 0 0 0 0.16 0"/><feBlend in2="BackgroundImageFix" mode="normal" result="effect1_dropShadow_2746_12153"/><feBlend in="SourceGraphic" in2="effect1_dropShadow_2746_12153" mode="normal" result="shape"/></filter><g filter="url(#a)"><rect fill="#fff" height="36" rx="18" width="36" x="2"/></g><path d="m4 18c0-8.83656 7.1634-16 16-16 8.8366 0 16 7.16344 16 16 0 8.8366-7.1634 16-16 16-8.8366 0-16-7.1634-16-16z" fill="#ffcd00"/><g clip-rule="evenodd" fill-rule="evenodd"><path d="m5 18c0 8.2843 6.7157 15 15 15s15-6.7157 15-15c0-8.28427-6.7157-15-15-15s-15 6.71573-15 15zm15-16c-8.8366 0-16 7.16344-16 16 0 8.8366 7.1634 16 16 16s16-7.1634 16-16c0-8.83656-7.1634-16-16-16z" fill="#000" fill-opacity=".3"/><path d="m23.1378 16.7498h-6.2432v-1.046h6.2432zm-2.0756 5.0173c0-.5883-.4739-1.0622-1.046-1.0622s-1.046.4739-1.046 1.0622c0 .5884.4739 1.0623 1.046 1.0623s1.046-.4739 1.046-1.0623zm-1.046 3.1706c3.6772 0 6.7334-2.7619 7.2237-6.3411h-1.0623c-.4903 3.0071-3.0563 5.2951-6.1614 5.2951-1.1442 0-2.092-.9479-2.092-2.1081 0-1.1603.9316-2.1083 2.092-2.1083 1.1441 0 2.0918.9151 2.0918 2.1081 0 .2288-.0488.4577-.1144.6702.4095-.1814.7986-.4062 1.1604-.6702 0-1.7486-1.4055-3.1704-3.1215-3.1704-1.7324 0-3.1216 1.4218-3.1216 3.1704-.0163 1.7325 1.3729 3.1543 3.1053 3.1543zm-7.2238-6.3411c.3268 2.3371 1.7324 4.3145 3.6937 5.426-.4085-.6538-.6375-1.422-.6375-2.2555v-3.1705zm12.4372-1.046h3.1216c0 4.6742-3.7426 8.4494-8.3515 8.4494-4.6088 0-8.3513-3.7916-8.3513-8.4494h5.2135v1.4382c.7682-.8826 1.8794-1.4382 3.1216-1.4382 1.9938 0 3.6445 1.4055 4.0694 3.3014.7519-.9153 1.1767-2.0593 1.1767-3.3014zm-2.5985-5.8183c1.1442 0 2.0919.9481 2.0919 2.1083v1.0623h-1.0459v-1.0623c0-.5883-.4741-1.0623-1.046-1.0623-.0981 0-.1798.0163-.2615.0326.1634.3107.2615.6539.2615 1.0134v1.0623h-1.046v-1.0623c0-.5883-.4739-1.0622-1.046-1.0622v2.1408h-1.046v-2.1083c-.5719 0-1.0459.4739-1.0459 1.0625v1.0622h-1.046v-1.0624c0-.376.098-.719.2614-1.0131-.0817-.0163-.1797-.0327-.2614-.0327-.572 0-1.046.4739-1.046 1.0622v1.0623h-1.046v-1.0623c0-1.1604.9316-2.1083 2.092-2.1083.376 0 .7355.1145 1.046.2943.3104-.1798.6537-.2943 1.0296-.2943.1799 0 .3433.0326.5067.0655.1634-.0492.3432-.0655.5393-.0655.376 0 .7355.1145 1.046.2943.3268-.2126.6701-.327 1.0623-.327zm-2.3861-1.2257h.4902v.4577h-.4902v.4902h-.4577v-.4902h-.4903v-.4577h.4903v-.5066h.4577z" fill="#002453"/></g></svg>