<svg fill="none" height="40" viewBox="0 0 40 40" width="40" xmlns="http://www.w3.org/2000/svg" xmlns:xlink="http://www.w3.org/1999/xlink"><filter id="a" color-interpolation-filters="sRGB" filterUnits="userSpaceOnUse" height="40" width="40" x="0" y="0"><feFlood flood-opacity="0" result="BackgroundImageFix"/><feColorMatrix in="SourceAlpha" result="hardAlpha" type="matrix" values="0 0 0 0 0 0 0 0 0 0 0 0 0 0 0 0 0 0 127 0"/><feOffset dy="2"/><feGaussianBlur stdDeviation="1"/><feColorMatrix type="matrix" values="0 0 0 0 0 0 0 0 0 0 0 0 0 0 0 0 0 0 0.16 0"/><feBlend in2="BackgroundImageFix" mode="normal" result="effect1_dropShadow_2746_12112"/><feBlend in="SourceGraphic" in2="effect1_dropShadow_2746_12112" mode="normal" result="shape"/></filter><g filter="url(#a)"><rect fill="#fff" height="36" rx="18" width="36" x="2"/></g><path d="m4 18c0-8.83656 7.1634-16 16-16 8.8366 0 16 7.16344 16 16 0 8.8366-7.1634 16-16 16-8.8366 0-16-7.1634-16-16z" fill="#007ac5"/><path clip-rule="evenodd" d="m5 18c0 8.2843 6.7157 15 15 15s15-6.7157 15-15c0-8.28427-6.7157-15-15-15s-15 6.71573-15 15zm15-16c-8.8366 0-16 7.16344-16 16 0 8.8366 7.1634 16 16 16s16-7.1634 16-16c0-8.83656-7.1634-16-16-16z" fill="#000" fill-opacity=".3" fill-rule="evenodd"/><path d="m26 14.7773v-3.6347h-12v2.1707h1.3219v9.3897h-1.3219v2.1539h12v-3.6347h-2.3863v1.4808h-5.7167v-3.6853h5.2017v-2.0697h-5.2017v-3.6347h5.7167v1.464z" fill="#fff"/></svg>