<svg viewBox="0 0 68 78" fill="none" xmlns="http://www.w3.org/2000/svg">
<ellipse cx="34" cy="64" rx="18" ry="4" fill="url(#paint0_radial_456_45123)" fill-opacity="0.2"/>
<g filter="url(#filter0_d_456_45123)">
<path d="M50.8581 42.7658C52.847 39.6579 54 35.9632 54 32C54 20.9543 45.0457 12 34 12C22.9543 12 14 20.9543 14 32C14 35.9632 15.153 39.6579 17.1419 42.7658C20.5912 49.2599 26.6306 54.6302 34 62C41.3694 54.6302 47.4088 49.2599 50.8581 42.7658Z" fill="#009ADF"/>
</g>
<g filter="url(#filter1_d_456_45123)">
<path fill-rule="evenodd" clip-rule="evenodd" d="M33.9731 61.9731C32.8191 60.8193 31.6979 59.7146 30.6141 58.6468C24.7882 52.9066 20.0466 48.2347 17.1419 42.7658C15.153 39.6579 14 35.9632 14 32C14 20.9543 22.9543 12 34 12C45.0457 12 54 20.9543 54 32C54 35.9632 52.847 39.6579 50.8581 42.7658C47.9534 48.2347 43.2118 52.9066 37.3859 58.6468C36.3021 59.7146 35.1809 60.8193 34.0269 61.9731C34.018 61.9821 34.009 61.991 34 62C33.991 61.991 33.982 61.9821 33.9731 61.9731ZM52.5866 43.775C54.7484 40.3692 56 36.3274 56 32C56 19.8497 46.1503 10 34 10C21.8497 10 12 19.8497 12 32C12 36.3274 13.2516 40.3692 15.4134 43.775C18.4785 49.509 23.4666 54.4194 29.2624 60.1249C30.3444 61.1901 31.4547 62.283 32.5857 63.4142C32.9608 63.7893 33.4695 64 34 64C34.5305 64 35.0392 63.7893 35.4143 63.4142C36.5454 62.283 37.6556 61.1901 38.7376 60.1249C44.5334 54.4194 49.5215 49.509 52.5866 43.775Z" fill="white"/>
</g>
<path fill-rule="evenodd" clip-rule="evenodd" d="M49.975 42.2967C49.9876 42.2729 50.0013 42.2495 50.0158 42.2268C51.9048 39.275 53 35.7666 53 32C53 21.5065 44.4935 13 34 13C23.5065 13 15 21.5065 15 32C15 35.7666 16.0952 39.275 17.9842 42.2268C17.9987 42.2495 18.0124 42.2729 18.025 42.2967C20.8515 47.6182 25.4617 52.1626 31.2903 57.9079C32.1666 58.7718 33.0705 59.6627 34 60.5876C34.9295 59.6627 35.8334 58.7718 36.7097 57.9079C42.5383 52.1626 47.1485 47.6182 49.975 42.2967ZM34.0269 61.9731C34.018 61.9821 34.009 61.991 34 62C33.991 61.991 33.982 61.9821 33.9731 61.9731C32.8191 60.8193 31.6979 59.7146 30.6141 58.6468C24.7882 52.9066 20.0466 48.2347 17.1419 42.7658C15.153 39.6579 14 35.9632 14 32C14 20.9543 22.9543 12 34 12C45.0457 12 54 20.9543 54 32C54 35.9632 52.847 39.6579 50.8581 42.7658C47.9534 48.2347 43.2118 52.9066 37.3859 58.6468C36.3021 59.7146 35.1809 60.8193 34.0269 61.9731Z" fill="black" fill-opacity="0.3"/>
<path fill-rule="evenodd" clip-rule="evenodd" d="M42.002 32.0029C42.002 36.4212 38.4202 40.0029 34.002 40.0029C29.5837 40.0029 26.002 36.4212 26.002 32.0029C26.002 27.5847 29.5837 24.0029 34.002 24.0029C38.4202 24.0029 42.002 27.5847 42.002 32.0029ZM34.002 39.0029C37.8679 39.0029 41.002 35.8689 41.002 32.0029C41.002 28.1369 37.8679 25.0029 34.002 25.0029C30.136 25.0029 27.002 28.1369 27.002 32.0029C27.002 35.8689 30.136 39.0029 34.002 39.0029Z" fill="black" fill-opacity="0.3"/>
<path d="M41.002 32.0029C41.002 35.8689 37.8679 39.0029 34.002 39.0029C30.136 39.0029 27.002 35.8689 27.002 32.0029C27.002 28.1369 30.136 25.0029 34.002 25.0029C37.8679 25.0029 41.002 28.1369 41.002 32.0029Z" fill="#EFEDEA"/>
<path fill-rule="evenodd" clip-rule="evenodd" d="M34.002 37.0029C36.7634 37.0029 39.002 34.7644 39.002 32.0029C39.002 29.2415 36.7634 27.0029 34.002 27.0029C31.2405 27.0029 29.002 29.2415 29.002 32.0029C29.002 34.7644 31.2405 37.0029 34.002 37.0029ZM34.002 39.0029C37.8679 39.0029 41.002 35.8689 41.002 32.0029C41.002 28.1369 37.8679 25.0029 34.002 25.0029C30.136 25.0029 27.002 28.1369 27.002 32.0029C27.002 35.8689 30.136 39.0029 34.002 39.0029Z" fill="white"/>
<defs>
<filter id="filter0_d_456_45123" x="12" y="12" width="44" height="54" filterUnits="userSpaceOnUse" color-interpolation-filters="sRGB">
<feFlood flood-opacity="0" result="BackgroundImageFix"/>
<feColorMatrix in="SourceAlpha" type="matrix" values="0 0 0 0 0 0 0 0 0 0 0 0 0 0 0 0 0 0 127 0" result="hardAlpha"/>
<feOffset dy="2"/>
<feGaussianBlur stdDeviation="1"/>
<feColorMatrix type="matrix" values="0 0 0 0 0 0 0 0 0 0 0 0 0 0 0 0 0 0 0.16 0"/>
<feBlend mode="normal" in2="BackgroundImageFix" result="effect1_dropShadow_456_45123"/>
<feBlend mode="normal" in="SourceGraphic" in2="effect1_dropShadow_456_45123" result="shape"/>
</filter>
<filter id="filter1_d_456_45123" x="0" y="0" width="68" height="78" filterUnits="userSpaceOnUse" color-interpolation-filters="sRGB">
<feFlood flood-opacity="0" result="BackgroundImageFix"/>
<feColorMatrix in="SourceAlpha" type="matrix" values="0 0 0 0 0 0 0 0 0 0 0 0 0 0 0 0 0 0 127 0" result="hardAlpha"/>
<feOffset dy="2"/>
<feGaussianBlur stdDeviation="6"/>
<feColorMatrix type="matrix" values="0 0 0 0 0 0 0 0 0 0 0 0 0 0 0 0 0 0 0.16 0"/>
<feBlend mode="normal" in2="BackgroundImageFix" result="effect1_dropShadow_456_45123"/>
<feBlend mode="normal" in="SourceGraphic" in2="effect1_dropShadow_456_45123" result="shape"/>
</filter>
<radialGradient id="paint0_radial_456_45123" cx="0" cy="0" r="1" gradientUnits="userSpaceOnUse" gradientTransform="translate(34 64) rotate(90) scale(4 18)">
<stop offset="0.273661"/>
<stop offset="1" stop-opacity="0"/>
</radialGradient>
</defs>
</svg>
