<svg fill="none" height="78" viewBox="0 0 68 78" width="68" xmlns="http://www.w3.org/2000/svg" xmlns:xlink="http://www.w3.org/1999/xlink"><filter id="a" color-interpolation-filters="sRGB" filterUnits="userSpaceOnUse" height="54" width="44" x="12" y="12"><feFlood flood-opacity="0" result="BackgroundImageFix"/><feColorMatrix in="SourceAlpha" result="hardAlpha" type="matrix" values="0 0 0 0 0 0 0 0 0 0 0 0 0 0 0 0 0 0 127 0"/><feOffset dy="2"/><feGaussianBlur stdDeviation="1"/><feColorMatrix type="matrix" values="0 0 0 0 0 0 0 0 0 0 0 0 0 0 0 0 0 0 0.16 0"/><feBlend in2="BackgroundImageFix" mode="normal" result="effect1_dropShadow_2746_12138"/><feBlend in="SourceGraphic" in2="effect1_dropShadow_2746_12138" mode="normal" result="shape"/></filter><filter id="b" color-interpolation-filters="sRGB" filterUnits="userSpaceOnUse" height="78" width="68" x="0" y="0"><feFlood flood-opacity="0" result="BackgroundImageFix"/><feColorMatrix in="SourceAlpha" result="hardAlpha" type="matrix" values="0 0 0 0 0 0 0 0 0 0 0 0 0 0 0 0 0 0 127 0"/><feOffset dy="2"/><feGaussianBlur stdDeviation="6"/><feColorMatrix type="matrix" values="0 0 0 0 0 0 0 0 0 0 0 0 0 0 0 0 0 0 0.16 0"/><feBlend in2="BackgroundImageFix" mode="normal" result="effect1_dropShadow_2746_12138"/><feBlend in="SourceGraphic" in2="effect1_dropShadow_2746_12138" mode="normal" result="shape"/></filter><radialGradient id="c" cx="0" cy="0" gradientTransform="matrix(0 4 -18 0 34 64)" gradientUnits="userSpaceOnUse" r="1"><stop offset=".273661"/><stop offset="1" stop-opacity="0"/></radialGradient><ellipse cx="34" cy="64" fill="url(#c)" fill-opacity=".2" rx="18" ry="4"/><g filter="url(#a)"><path d="m50.8581 42.7658c1.9889-3.1079 3.1419-6.8026 3.1419-10.7658 0-11.0457-8.9543-20-20-20s-20 8.9543-20 20c0 3.9632 1.153 7.6579 3.1419 10.7658 3.4493 6.4941 9.4887 11.8644 16.8581 19.2342 7.3694-7.3698 13.4088-12.7401 16.8581-19.2342z" fill="#eedc00"/></g><g filter="url(#b)"><path clip-rule="evenodd" d="m33.9731 61.9731c-1.154-1.1538-2.2752-2.2585-3.359-3.3263-5.8259-5.7402-10.5675-10.4121-13.4722-15.881-1.9889-3.1079-3.1419-6.8026-3.1419-10.7658 0-11.0457 8.9543-20 20-20s20 8.9543 20 20c0 3.9632-1.153 7.6579-3.1419 10.7658-2.9047 5.4689-7.6463 10.1408-13.4722 15.881-1.0838 1.0678-2.205 2.1725-3.359 3.3263-.0089.009-.0179.0179-.0269.0269-.009-.009-.018-.0179-.0269-.0269zm18.6135-18.1981c2.1618-3.4058 3.4134-7.4476 3.4134-11.775 0-12.1503-9.8497-22-22-22s-22 9.8497-22 22c0 4.3274 1.2516 8.3692 3.4134 11.775 3.0651 5.734 8.0532 10.6444 13.849 16.3499 1.082 1.0652 2.1923 2.1581 3.3233 3.2893.3751.3751.8838.5858 1.4143.5858s1.0392-.2107 1.4143-.5858c1.1311-1.1312 2.2413-2.2241 3.3233-3.2893 5.7958-5.7055 10.7839-10.6159 13.849-16.3499z" fill="#fff" fill-rule="evenodd"/></g><path clip-rule="evenodd" d="m49.975 42.2967c.0126-.0238.0263-.0472.0408-.0699 1.889-2.9518 2.9842-6.4602 2.9842-10.2268 0-10.4935-8.5065-19-19-19s-19 8.5065-19 19c0 3.7666 1.0952 7.275 2.9842 10.2268.0145.0227.0282.0461.0408.0699 2.8265 5.3215 7.4367 9.8659 13.2653 15.6112.8763.8639 1.7802 1.7548 2.7097 2.6797.9295-.9249 1.8334-1.8158 2.7097-2.6797 5.8286-5.7453 10.4388-10.2897 13.2653-15.6112zm-15.9481 19.6764c-.0089.009-.0179.0179-.0269.0269-.009-.009-.018-.0179-.0269-.0269-1.154-1.1538-2.2752-2.2585-3.359-3.3263-5.8259-5.7402-10.5675-10.4121-13.4722-15.881-1.9889-3.1079-3.1419-6.8026-3.1419-10.7658 0-11.0457 8.9543-20 20-20s20 8.9543 20 20c0 3.9632-1.153 7.6579-3.1419 10.7658-2.9047 5.4689-7.6463 10.1408-13.4722 15.881-1.0838 1.0678-2.205 2.1725-3.359 3.3263z" fill="#000" fill-opacity=".3" fill-rule="evenodd"/><path clip-rule="evenodd" d="m42.002 32.0029c0 4.4183-3.5818 8-8 8-4.4183 0-8-3.5817-8-8 0-4.4182 3.5817-8 8-8 4.4182 0 8 3.5818 8 8zm-8 7c3.8659 0 7-3.134 7-7s-3.1341-7-7-7c-3.866 0-7 3.134-7 7s3.134 7 7 7z" fill="#000" fill-opacity=".3" fill-rule="evenodd"/><path d="m41.002 32.0029c0 3.866-3.1341 7-7 7-3.866 0-7-3.134-7-7s3.134-7 7-7c3.8659 0 7 3.134 7 7z" fill="#efedea"/><path clip-rule="evenodd" d="m34.002 37.0029c2.7614 0 5-2.2385 5-5 0-2.7614-2.2386-5-5-5-2.7615 0-5 2.2386-5 5 0 2.7615 2.2385 5 5 5zm0 2c3.8659 0 7-3.134 7-7s-3.1341-7-7-7c-3.866 0-7 3.134-7 7s3.134 7 7 7z" fill="#fff" fill-rule="evenodd"/></svg>