<svg viewBox="0 0 38 24" width="38" height="24" role="img" aria-labelledby="pi-rabby" fill="none" xmlns="http://www.w3.org/2000/svg"><title id="pi-rabby">Rabby</title><path d="M35 0H3C1.3 0 0 1.3 0 3V21C0 22.7 1.4 24 3 24H35C36.7 24 38 22.7 38 21V3C38 1.3 36.6 0 35 0Z" fill="#000" fill-opacity=".07"/><path d="M35 1C36.1 1 37 1.9 37 3V21C37 22.1 36.1 23 35 23H3C1.9 23 1 22.1 1 21V3C1 1.9 1.9 1 3 1H35Z" fill="#8697FF"/><path d="M26.8398 12.9918C27.462 11.597 24.3859 7.70031 21.4471 6.07687C19.5946 4.81922 17.6644 4.992 17.2735 5.54423C16.4156 6.75607 20.1143 7.78298 22.588 8.98125C22.0563 9.21298 21.5552 9.62883 21.2605 10.1607C20.3383 9.15046 18.3142 8.28052 15.9391 8.98125C14.3386 9.45348 13.0085 10.5667 12.4943 12.2482C12.3694 12.1925 12.2311 12.1615 12.0856 12.1615C11.5292 12.1615 11.0781 12.6141 11.0781 13.1724C11.0781 13.7307 11.5292 14.1834 12.0856 14.1834C12.1888 14.1834 12.5112 14.1139 12.5112 14.1139L17.6644 14.1514C15.6036 17.4318 13.9749 17.9113 13.9749 18.4796C13.9749 19.0479 15.5332 18.8939 16.1184 18.6821C18.9194 17.668 21.9279 14.5075 22.4441 13.5977C24.6121 13.8691 26.434 13.9012 26.8398 12.9918Z" fill="url(#paint0_linear_12919_114111)"/><path fill-rule="evenodd" clip-rule="evenodd" d="M22.5871 8.98311C22.5873 8.9832 22.5874 8.98324 22.5875 8.98328C22.7022 8.93799 22.6837 8.76805 22.6522 8.63463C22.5798 8.32797 21.3313 7.0909 20.1588 6.53681C18.5612 5.78181 17.3848 5.8207 17.2109 6.16861C17.5363 6.8379 19.0451 7.46623 20.6208 8.12249C21.2931 8.40247 21.9775 8.68753 22.5874 8.98298C22.5874 8.98302 22.5872 8.98307 22.5871 8.98311Z" fill="url(#paint1_linear_12919_114111)"/><path fill-rule="evenodd" clip-rule="evenodd" d="M20.5626 15.7176C20.2395 15.5937 19.8745 15.4801 19.4596 15.3769C19.902 14.5826 19.9949 13.4067 19.577 12.6632C18.9906 11.6198 18.2545 11.0644 16.544 11.0645C15.6032 11.0645 13.0702 11.3824 13.0252 13.504C13.0205 13.7266 13.0251 13.9306 13.0411 14.1183L17.6666 14.1519C17.0431 15.1445 16.459 15.8806 15.9477 16.4404C16.5616 16.5983 17.0682 16.7308 17.5333 16.8524C17.9746 16.9679 18.3786 17.0735 18.8014 17.1818C19.4391 16.7155 20.0387 16.2072 20.5626 15.7176Z" fill="url(#paint2_linear_12919_114111)"/><path d="M12.434 13.9006C12.623 15.5123 13.5359 16.144 15.4013 16.3309C17.2667 16.5178 18.3367 16.3924 19.7613 16.5225C20.951 16.6311 22.0134 17.2394 22.4075 17.0292C22.7622 16.84 22.5638 16.1564 22.0892 15.7179C21.474 15.1494 20.6225 14.7542 19.1244 14.6139C19.423 13.7937 19.3393 12.6437 18.8756 12.0179C18.2051 11.1132 16.9675 10.7042 15.4013 10.8829C13.7649 11.0696 12.1969 11.878 12.434 13.9006Z" fill="url(#paint3_linear_12919_114111)"/><defs><linearGradient id="paint0_linear_12919_114111" x1="15.7527" y1="11.7566" x2="26.7112" y2="14.8538" gradientUnits="userSpaceOnUse"><stop stop-color="white"/><stop offset="1" stop-color="white"/></linearGradient><linearGradient id="paint1_linear_12919_114111" x1="24.8608" y1="11.5494" x2="16.931" y2="3.62702" gradientUnits="userSpaceOnUse"><stop stop-color="#8697FF"/><stop offset="1" stop-color="#8697FF" stop-opacity="0"/></linearGradient><linearGradient id="paint2_linear_12919_114111" x1="20.7825" y1="15.9945" x2="13.178" y2="11.6372" gradientUnits="userSpaceOnUse"><stop stop-color="#8697FF"/><stop offset="1" stop-color="#8697FF" stop-opacity="0"/></linearGradient><linearGradient id="paint3_linear_12919_114111" x1="16.408" y1="11.6756" x2="21.5609" y2="18.2008" gradientUnits="userSpaceOnUse"><stop stop-color="white"/><stop offset="0.983895" stop-color="#D1D8FF"/></linearGradient></defs></svg>
